<svg xmlns="http://www.w3.org/2000/svg" width="46" height="46" viewBox="0 0 46 46" fill="none">
                                        <path d="M19.1667 19.1668C23.4008 19.1668 26.8333 15.7343 26.8333 11.5002C26.8333 7.26598 23.4008 3.8335 19.1667 3.8335C14.9325 3.8335 11.5 7.26598 11.5 11.5002C11.5 15.7343 14.9325 19.1668 19.1667 19.1668Z" stroke="#1BC9E4" stroke-width="2.875"></path>
                                        <path opacity="0.5" d="M34.4999 33.5415C34.4999 38.3044 34.4999 42.1665 19.1666 42.1665C3.83325 42.1665 3.83325 38.3044 3.83325 33.5415C3.83325 28.7786 10.6988 24.9165 19.1666 24.9165C27.6344 24.9165 34.4999 28.7786 34.4999 33.5415Z" stroke="#1BC9E4" stroke-width="2.875"></path>
                                        <path d="M36.4168 16.5673L35.3972 17.5793C35.5308 17.7137 35.6896 17.8204 35.8646 17.8932C36.0396 17.966 36.2273 18.0035 36.4168 18.0035C36.6064 18.0035 36.794 17.966 36.969 17.8932C37.144 17.8204 37.3029 17.7137 37.4365 17.5793L36.4168 16.5673ZM35.5428 22.8885C34.6094 22.1774 33.7699 21.6081 33.0933 20.8702C32.4666 20.186 32.1043 19.4806 32.1043 18.5894H29.2293C29.2293 20.4102 30.0228 21.7768 30.9735 22.8137C31.8762 23.797 33.0377 24.5962 33.7987 25.175L35.5428 22.8885ZM32.1043 18.5894C32.1043 17.7997 32.5643 17.1634 33.1527 16.9027C33.6645 16.6765 34.4752 16.6535 35.3972 17.5793L37.4365 15.5534C35.769 13.8763 33.7086 13.5121 31.9893 14.273C31.1619 14.65 30.4611 15.2583 29.9714 16.0244C29.4817 16.7906 29.224 17.6801 29.2293 18.5894H32.1043ZM33.7987 25.175C34.0823 25.3916 34.4542 25.6734 34.8432 25.8957C35.2323 26.118 35.7767 26.3538 36.4168 26.3538V23.4788C36.482 23.4788 36.4494 23.4999 36.2597 23.3945C36.068 23.2871 35.8533 23.1261 35.5428 22.8885L33.7987 25.175ZM39.035 25.175C39.7959 24.5943 40.9574 23.797 41.8582 22.8137C42.8108 21.7768 43.6043 20.4083 43.6043 18.5913H40.7293C40.7293 19.4806 40.3671 20.186 39.7403 20.8721C39.0637 21.6081 38.2242 22.1774 37.2908 22.8885L39.035 25.175ZM43.6043 18.5913C43.6043 16.6746 42.4831 14.9975 40.8443 14.273C39.127 13.5121 37.0627 13.8763 35.3972 15.5534L37.4365 17.5793C38.3565 16.6535 39.1692 16.6765 39.679 16.9027C39.9971 17.0538 40.2652 17.2931 40.4514 17.5921C40.6376 17.8911 40.734 18.2391 40.7293 18.5913H43.6043ZM37.2908 22.8885C37.0617 23.0707 36.8224 23.2396 36.574 23.3945C36.3842 23.5018 36.3517 23.4788 36.4168 23.4788V26.3538C37.057 26.3538 37.5994 26.118 37.9885 25.8957C38.3795 25.6753 38.7513 25.3916 39.035 25.175L37.2908 22.8885Z" fill="#1BC9E4"></path>
                                    </svg>