<svg width="70" height="70" viewBox="0 0 70 70" fill="none" xmlns="http://www.w3.org/2000/svg">
<path d="M32.2658 35C31.9858 35 31.7058 34.8928 31.4925 34.6795L26.0238 29.2108C25.5961 28.7831 25.5961 28.0919 26.0238 27.6642C26.4514 27.2366 27.1427 27.2366 27.5703 27.6642L32.2658 32.3597L42.43 22.1955C42.8577 21.7678 43.5489 21.7678 43.9766 22.1955C44.4042 22.6231 44.4042 23.3144 43.9766 23.742L33.0391 34.6795C32.8258 34.8928 32.5458 35 32.2658 35ZM59.1535 32.2306C60.5261 34.9322 60.3172 39.2722 58.6799 42.1083C57.1672 44.7311 53.9341 46.9525 51.0652 47.4447L58.4447 60.2317C58.6471 60.5806 58.6394 61.0127 58.4272 61.355C58.2139 61.6973 57.8355 61.9052 57.4275 61.8702L49.7221 61.3802L46.2932 68.297C46.1138 68.6591 45.7506 68.892 45.3481 68.9052C45.3361 68.9052 45.3252 68.9052 45.3132 68.9052C44.9249 68.9052 44.5617 68.6973 44.3671 68.3583L36.97 55.5483C36.305 55.6872 35.6411 55.7812 35.0002 55.7812C34.3592 55.7812 33.6953 55.6872 33.0292 55.5494L25.6333 68.3594C25.4375 68.6984 25.0755 68.9062 24.6861 68.9062C24.6752 68.9062 24.6632 68.9062 24.6511 68.9062C24.2475 68.8931 23.8844 68.6602 23.7061 68.2981L20.2783 61.3812L12.5717 61.8713C12.1616 61.8997 11.7853 61.6984 11.5732 61.3561C11.361 61.0138 11.3533 60.5817 11.5546 60.2328L18.9352 47.4458C16.0674 46.9536 12.8342 44.7333 11.3205 42.1116C9.68315 39.2711 9.47534 34.9322 10.8469 32.2317C11.8914 30.1766 11.8914 26.7017 10.8469 24.6444C9.47534 21.945 9.68315 17.6072 11.3205 14.7689C12.9546 11.9372 16.5989 9.54625 19.6166 9.32422C21.9321 9.15578 24.953 7.41344 26.2163 5.51906C27.8678 3.03734 31.7266 1.09375 35.0002 1.09375C38.2738 1.09375 42.1325 3.03734 43.7841 5.51797C45.0452 7.41125 48.0672 9.15469 50.3838 9.32312C53.4036 9.54406 57.048 11.935 58.6799 14.7667C60.3183 17.6072 60.5261 21.945 59.1524 24.6433C58.11 26.7006 58.11 30.1744 59.1535 32.2306ZM30.8844 54.8887C28.9441 54.0881 27.1919 52.8227 26.2152 51.357C25.2286 49.8761 23.1669 48.5002 21.2069 47.8833L14.4683 59.558L20.8646 59.1511C21.3021 59.1183 21.7177 59.3622 21.9135 59.757L24.7583 65.497L30.8844 54.8887ZM55.531 59.5591L48.7913 47.8844C46.8302 48.5002 44.7696 49.8772 43.7841 51.357C42.8074 52.8227 41.0563 54.0881 39.1149 54.8887L45.241 65.4981L48.0858 59.7581C48.2816 59.3633 48.6961 59.1194 49.1358 59.1522L55.531 59.5591ZM57.2033 23.6523C58.2391 21.6169 58.0488 18.048 56.7877 15.8594C55.5222 13.6686 52.5155 11.6736 50.2241 11.5063C47.2305 11.2864 43.6003 9.18859 41.9641 6.73094C40.7194 4.86062 37.53 3.28125 35.0002 3.28125C32.4703 3.28125 29.281 4.86062 28.0363 6.73094C26.3957 9.19078 22.7677 11.2875 19.7752 11.5052C17.4849 11.6725 14.4803 13.6664 13.2138 15.8594C11.9527 18.0469 11.7602 21.6158 12.796 23.6523C14.1588 26.3364 14.1588 30.5386 12.796 33.2216C11.7602 35.2592 11.9516 38.8281 13.2138 41.0156C14.4792 43.2075 17.4838 45.2014 19.7752 45.3687C22.7688 45.5886 26.3978 47.6853 28.0352 50.143C29.281 52.0144 32.4714 53.5938 35.0002 53.5938C37.5289 53.5938 40.7194 52.0144 41.9641 50.1441C43.5992 47.6864 47.2283 45.5897 50.2241 45.3698C52.5177 45.2025 55.5222 43.2086 56.7855 41.0178C58.0466 38.8303 58.238 35.2603 57.2033 33.2216C55.8416 30.5386 55.8416 26.3364 57.2033 23.6523ZM52.5002 28.4375C52.5002 38.0866 44.6492 45.9375 35.0002 45.9375C25.3511 45.9375 17.5002 38.0866 17.5002 28.4375C17.5002 18.7884 25.3511 10.9375 35.0002 10.9375C44.6492 10.9375 52.5002 18.7884 52.5002 28.4375ZM50.3127 28.4375C50.3127 19.9937 43.4439 13.125 35.0002 13.125C26.5564 13.125 19.6877 19.9937 19.6877 28.4375C19.6877 36.8812 26.5564 43.75 35.0002 43.75C43.4439 43.75 50.3127 36.8812 50.3127 28.4375Z" fill="#1C43FE"/>
</svg>
