<svg width="70" height="70" viewBox="0 0 70 70" fill="none" xmlns="http://www.w3.org/2000/svg">
<path fill-rule="evenodd" clip-rule="evenodd" d="M19.2129 15.8761V6.51897C19.2129 6.22203 19.3307 5.93758 19.5401 5.72838C19.7501 5.51836 20.0345 5.40047 20.3315 5.40047H66.6707C66.9676 5.40047 67.2521 5.51836 67.4613 5.72838C67.6713 5.93758 67.7892 6.22203 67.7892 6.51897V41.8963C67.7892 42.1932 67.6713 42.4777 67.4613 42.6869C67.2521 42.8969 66.9676 43.0148 66.6707 43.0148H43.5478C42.9377 43.0148 42.4426 43.5099 42.4426 44.12C42.4426 44.73 42.9378 45.2252 43.5478 45.2252H66.6707C67.5534 45.2252 68.4 44.8744 69.0249 44.2504C69.649 43.6255 69.9997 42.7789 69.9997 41.8962V6.51897C69.9997 5.63626 69.649 4.78961 69.0249 4.16477C68.4 3.54062 67.5534 3.18994 66.6707 3.18994C58.2958 3.18994 28.7064 3.18994 20.3315 3.18994C19.4488 3.18994 18.6014 3.54074 17.9773 4.16477C17.3531 4.78961 17.0024 5.63626 17.0024 6.51897V15.8761C17.0024 16.4862 17.4976 16.9813 18.1076 16.9813C18.7177 16.9813 19.2129 16.4863 19.2129 15.8761Z" fill="#1C43FE"/>
<path fill-rule="evenodd" clip-rule="evenodd" d="M42.9829 50.0007V65.705C42.9829 66.3151 43.4788 66.8102 44.0881 66.8102C44.6983 66.8102 45.1933 66.315 45.1933 65.705V50.0007C45.1933 49.3905 44.6982 48.8955 44.0881 48.8955C43.4788 48.8955 42.9829 49.3907 42.9829 50.0007Z" fill="#1C43FE"/>
<path fill-rule="evenodd" clip-rule="evenodd" d="M68.8947 36.5586H56.476C55.0464 36.5586 53.8882 37.7168 53.8882 39.1464V44.12C53.8882 44.7302 54.3833 45.2252 54.9934 45.2252C55.6035 45.2252 56.0986 44.7301 56.0986 44.12V39.1464C56.0986 38.9379 56.2673 38.7691 56.4759 38.7691H68.8946C69.5047 38.7691 69.9998 38.274 69.9998 37.6639C69.9998 37.0539 69.5048 36.5586 68.8947 36.5586Z" fill="#1C43FE"/>
<path fill-rule="evenodd" clip-rule="evenodd" d="M25.8054 12.8545H41.0669C41.6762 12.8545 42.1721 12.3593 42.1721 11.7492C42.1721 11.1391 41.6762 10.644 41.0669 10.644H25.8054C25.1954 10.644 24.7002 11.1392 24.7002 11.7492C24.7001 12.3593 25.1952 12.8545 25.8054 12.8545Z" fill="#1C43FE"/>
<path fill-rule="evenodd" clip-rule="evenodd" d="M25.8054 18.5654H62.3712C62.9813 18.5654 63.4763 18.0702 63.4763 17.4602C63.4763 16.8508 62.9812 16.355 62.3712 16.355H25.8054C25.1954 16.355 24.7002 16.8508 24.7002 17.4602C24.7001 18.0702 25.1952 18.5654 25.8054 18.5654Z" fill="#1C43FE"/>
<path fill-rule="evenodd" clip-rule="evenodd" d="M32.4949 24.2778H39.707C40.3172 24.2778 40.8122 23.7826 40.8122 23.1726C40.8122 22.5624 40.3171 22.0674 39.707 22.0674H32.4949C31.8855 22.0674 31.3896 22.5625 31.3896 23.1726C31.3896 23.7826 31.8855 24.2778 32.4949 24.2778Z" fill="#1C43FE"/>
<path fill-rule="evenodd" clip-rule="evenodd" d="M50.2048 32.08H61.6126C62.2228 32.08 62.7178 31.5849 62.7178 30.9748C62.7178 30.3655 62.2227 29.8696 61.6126 29.8696H50.2048C49.5946 29.8696 49.0996 30.3655 49.0996 30.9748C49.0996 31.5849 49.5948 32.08 50.2048 32.08Z" fill="#1C43FE"/>
<path fill-rule="evenodd" clip-rule="evenodd" d="M52.9348 24.2778H62.1947C62.8049 24.2778 63.2999 23.7826 63.2999 23.1726C63.2999 22.5624 62.8048 22.0674 62.1947 22.0674H52.9348C52.3254 22.0674 51.8296 22.5625 51.8296 23.1726C51.8295 23.7826 52.3254 24.2778 52.9348 24.2778Z" fill="#1C43FE"/>
<path fill-rule="evenodd" clip-rule="evenodd" d="M17.6301 18.2539C12.019 18.2539 7.46387 22.809 7.46387 28.4201C7.46387 34.0312 12.019 38.5864 17.6301 38.5864C23.2404 38.5864 27.7963 34.0312 27.7963 28.4201C27.7963 22.809 23.2405 18.2539 17.6301 18.2539ZM17.6301 20.4644C22.021 20.4644 25.5858 24.0292 25.5858 28.4201C25.5858 32.811 22.021 36.3758 17.6301 36.3758C13.2392 36.3758 9.67439 32.811 9.67439 28.4201C9.67439 24.0292 13.2393 20.4644 17.6301 20.4644Z" fill="#1C43FE"/>
<path fill-rule="evenodd" clip-rule="evenodd" d="M36.1103 37.6743L31.9759 41.6408C31.7674 41.8405 31.4903 41.9517 31.2015 41.9517H12.065C7.17382 41.9517 2.99665 45.482 2.18098 50.3052C1.44564 54.6512 0.563626 59.868 0.0463922 62.9266C-0.116464 63.8926 0.154 64.8814 0.786124 65.6301C1.41906 66.3787 2.34892 66.8105 3.32895 66.8105H23.8132C25.6523 66.8105 27.143 65.3198 27.143 63.4815V53.022C27.143 52.9218 27.1821 52.826 27.2528 52.7553C27.3242 52.6845 27.42 52.6448 27.5203 52.6448H32.4306C34.6898 52.6448 36.8612 51.7716 38.4911 50.208C39.9582 48.8007 41.9004 46.938 43.5127 45.3905C44.5362 44.409 45.1271 43.0614 45.1566 41.6437C45.1861 40.2407 44.6622 38.8827 43.6999 37.863C43.6903 37.8527 43.6491 37.8099 43.6388 37.7996C42.6603 36.796 41.3252 36.2161 39.9222 36.1867C38.5043 36.1579 37.1338 36.6921 36.1103 37.6743ZM33.5063 43.2353C34.4112 42.3672 36.117 40.7307 37.6407 39.2688C38.2405 38.6933 39.0452 38.3794 39.8763 38.3971C40.6994 38.4141 41.4819 38.7538 42.0559 39.3424C42.0618 39.349 42.086 39.3741 42.0919 39.3807C42.6563 39.9782 42.9637 40.7747 42.9467 41.5971C42.9297 42.4289 42.5827 43.2197 41.9821 43.7951C40.3699 45.3425 38.4276 47.2052 36.9605 48.6126C35.7425 49.7813 34.1192 50.4341 32.4303 50.4341C30.7835 50.4341 28.8302 50.4341 27.52 50.4341C26.8333 50.4341 26.1753 50.7068 25.6898 51.1923C25.2049 51.6772 24.9322 52.3359 24.9322 53.0219V63.4814C24.9315 64.0988 24.4312 64.5999 23.8137 64.5999C23.813 64.5999 3.32884 64.5999 3.32884 64.5999C2.99942 64.5999 2.687 64.4547 2.47479 64.2034C2.26189 63.9514 2.17127 63.6191 2.22571 63.2949L4.3603 50.6736C4.99624 46.9143 8.25233 44.1621 12.0647 44.1621H31.2012C32.0606 44.1622 32.8859 43.8298 33.5063 43.2353Z" fill="#1C43FE"/>
<path fill-rule="evenodd" clip-rule="evenodd" d="M9.92565 65.8891L11.8584 54.457C11.9601 53.8558 11.5548 53.2847 10.9528 53.1831C10.3516 53.0814 9.78048 53.4874 9.67888 54.0887L7.7461 65.5208C7.64439 66.122 8.04962 66.6931 8.6517 66.7947C9.25296 66.8964 9.82406 66.4904 9.92565 65.8891Z" fill="#1C43FE"/>
<path fill-rule="evenodd" clip-rule="evenodd" d="M9.97593 60.0684H16.6252C16.8337 60.0684 17.0025 60.2372 17.0025 60.4457V65.7053C17.0025 66.3155 17.4976 66.8105 18.1077 66.8105C18.7178 66.8105 19.2129 66.3154 19.2129 65.7053V60.4457C19.2129 59.0162 18.0538 57.8579 16.6251 57.8579C14.2797 57.8579 9.97581 57.8579 9.97581 57.8579C9.36576 57.8579 8.87061 58.3531 8.87061 58.9631C8.87061 59.5733 9.36576 60.0684 9.97593 60.0684Z" fill="#1C43FE"/>
<path fill-rule="evenodd" clip-rule="evenodd" d="M42.1194 37.818L46.6974 23.5092C46.883 22.9278 46.5625 22.306 45.9811 22.1196C45.4006 21.934 44.7779 22.2545 44.5915 22.8358L40.0142 37.1446C39.8284 37.7251 40.149 38.3478 40.7296 38.5342C41.3111 38.7198 41.9338 38.3985 42.1194 37.818Z" fill="#1C43FE"/>
</svg>
