<svg width="70" height="70" viewBox="0 0 70 70" fill="none" xmlns="http://www.w3.org/2000/svg">
<g clip-path="url(#clip0_7991_161)">
<path d="M40.8333 26.5122L66.5292 31.6164C68.6 32.0539 70 33.8039 70 35.8747V65.6247C70 68.0455 68.0458 69.9997 65.625 69.9997H39.375C40.1917 69.9997 40.8333 69.358 40.8333 68.5414V67.083H65.625C66.4125 67.083 67.0833 66.4414 67.0833 65.6247V35.8747C67.0833 35.2039 66.6167 34.5914 65.9458 34.4455L40.8333 29.4872V26.5122Z" fill="#1C43FE"/>
<path d="M56.8752 40.833C57.6918 40.833 58.3335 41.4747 58.3335 42.2913C58.3335 43.108 57.6918 43.7497 56.8752 43.7497H51.0418C50.2252 43.7497 49.5835 43.108 49.5835 42.2913C49.5835 41.4747 50.2252 40.833 51.0418 40.833H56.8752Z" fill="#1C43FE"/>
<path d="M56.8752 49.583C57.6918 49.583 58.3335 50.2247 58.3335 51.0413C58.3335 51.858 57.6918 52.4997 56.8752 52.4997H51.0418C50.2252 52.4997 49.5835 51.858 49.5835 51.0413C49.5835 50.2247 50.2252 49.583 51.0418 49.583H56.8752Z" fill="#1C43FE"/>
<path d="M56.8752 58.333C57.6918 58.333 58.3335 58.9747 58.3335 59.7913C58.3335 60.608 57.6918 61.2497 56.8752 61.2497H51.0418C50.2252 61.2497 49.5835 60.608 49.5835 59.7913C49.5835 58.9747 50.2252 58.333 51.0418 58.333H56.8752Z" fill="#1C43FE"/>
<path d="M40.8332 68.5417C40.8332 69.3584 40.1915 70 39.3748 70C38.5582 70 37.9165 69.3584 37.9165 68.5417V67.0834V27.7084C37.9165 27.2709 38.1207 26.8625 38.4415 26.5709C38.7915 26.3084 39.229 26.1917 39.6665 26.2792L40.8332 26.5125V29.4875V67.0834V68.5417Z" fill="#1C43FE"/>
<path d="M37.9168 67.083V68.5413C37.9168 69.358 38.5585 69.9997 39.3752 69.9997H27.7085C28.5252 69.9997 29.1668 69.358 29.1668 68.5413V67.083H37.9168Z" fill="#1C43FE"/>
<path d="M30.6252 14.583C31.4418 14.583 32.0835 15.2247 32.0835 16.0413C32.0835 16.858 31.4418 17.4997 30.6252 17.4997H24.7918C23.9752 17.4997 23.3335 16.858 23.3335 16.0413C23.3335 15.2247 23.9752 14.583 24.7918 14.583H30.6252Z" fill="#1C43FE"/>
<path d="M32.0835 24.7913C32.0835 25.608 31.4418 26.2497 30.6252 26.2497H24.7918C23.9752 26.2497 23.3335 25.608 23.3335 24.7913C23.3335 23.9747 23.9752 23.333 24.7918 23.333H30.6252C31.4418 23.333 32.0835 23.9747 32.0835 24.7913Z" fill="#1C43FE"/>
<path d="M30.6252 32.083C31.4418 32.083 32.0835 32.7247 32.0835 33.5413C32.0835 34.358 31.4418 34.9997 30.6252 34.9997H24.7918C23.9752 34.9997 23.3335 34.358 23.3335 33.5413C23.3335 32.7247 23.9752 32.083 24.7918 32.083H30.6252Z" fill="#1C43FE"/>
<path d="M30.6252 40.833C31.4418 40.833 32.0835 41.4747 32.0835 42.2913C32.0835 43.108 31.4418 43.7497 30.6252 43.7497H24.7918C23.9752 43.7497 23.3335 43.108 23.3335 42.2913C23.3335 41.4747 23.9752 40.833 24.7918 40.833H30.6252Z" fill="#1C43FE"/>
<path d="M17.5 42.2913C17.5 43.108 16.8583 43.7497 16.0417 43.7497H10.2083C9.39167 43.7497 8.75 43.108 8.75 42.2913C8.75 41.4747 9.39167 40.833 10.2083 40.833H16.0417C16.8583 40.833 17.5 41.4747 17.5 42.2913Z" fill="#1C43FE"/>
<path d="M16.0417 14.583C16.8583 14.583 17.5 15.2247 17.5 16.0413C17.5 16.858 16.8583 17.4997 16.0417 17.4997H10.2083C9.39167 17.4997 8.75 16.858 8.75 16.0413C8.75 15.2247 9.39167 14.583 10.2083 14.583H16.0417Z" fill="#1C43FE"/>
<path d="M16.0417 23.333C16.8583 23.333 17.5 23.9747 17.5 24.7913C17.5 25.608 16.8583 26.2497 16.0417 26.2497H10.2083C9.39167 26.2497 8.75 25.608 8.75 24.7913C8.75 23.9747 9.39167 23.333 10.2083 23.333H16.0417Z" fill="#1C43FE"/>
<path d="M16.0417 32.083C16.8583 32.083 17.5 32.7247 17.5 33.5413C17.5 34.358 16.8583 34.9997 16.0417 34.9997H10.2083C9.39167 34.9997 8.75 34.358 8.75 33.5413C8.75 32.7247 9.39167 32.083 10.2083 32.083H16.0417Z" fill="#1C43FE"/>
<path d="M26.2498 53.958C26.2498 53.1413 25.579 52.4997 24.7915 52.4997H16.0415C15.2248 52.4997 14.5832 53.1413 14.5832 53.958V67.083H11.6665V53.958C11.6665 51.5372 13.6207 49.583 16.0415 49.583H24.7915C27.2123 49.583 29.1665 51.5372 29.1665 53.958V67.083H26.2498V53.958Z" fill="#1C43FE"/>
<path d="M14.5832 67.083H26.2498H29.1665V68.5413C29.1665 69.358 28.5248 69.9997 27.7082 69.9997H13.1248C12.3082 69.9997 11.6665 69.358 11.6665 68.5413V67.083H14.5832Z" fill="#1C43FE"/>
<path d="M5.10417 0.583152L37.1583 5.45398C39.2875 5.80398 40.8333 7.61232 40.8333 9.77065V26.5123L39.6667 26.279C39.2292 26.1915 38.7917 26.3081 38.4417 26.5706C38.1208 26.8623 37.9167 27.2706 37.9167 27.7081V9.77065C37.9167 9.04148 37.3917 8.42898 36.6917 8.31232L4.6375 3.47065C4.55 3.44148 4.4625 3.44148 4.375 3.44148C4.025 3.44148 3.70417 3.55815 3.44167 3.79148C3.09167 4.08315 2.91667 4.46232 2.91667 4.89982V65.6248C2.91667 66.4415 3.5875 67.0832 4.375 67.0832H11.6667V68.5415C11.6667 69.3581 12.3083 69.9998 13.125 69.9998H4.375C1.95417 69.9998 0 68.0456 0 65.6248V4.89982C0 3.61648 0.554167 2.39148 1.54583 1.57482C2.5375 0.728985 3.82083 0.378985 5.10417 0.583152Z" fill="#1C43FE"/>
</g>
<defs>
<clipPath id="clip0_7991_161">
<rect width="70" height="70" fill="white"/>
</clipPath>
</defs>
</svg>
