<svg width="70" height="70" viewBox="0 0 70 70" fill="none" xmlns="http://www.w3.org/2000/svg">
<path d="M37.1878 67.8124C37.0238 67.8124 36.8575 67.7752 36.6978 67.6964C36.1575 67.4252 35.9388 66.7689 36.2078 66.2286L38.3953 61.8536C38.5835 61.4839 38.9619 61.2499 39.3753 61.2499C44.3738 61.2499 45.7716 59.6486 47.2 57.3845C47.526 56.8749 48.2085 56.7261 48.7072 57.0433C49.2169 57.3649 49.3722 58.043 49.0485 58.5527C47.1782 61.5145 45.0716 63.2842 40.0557 63.4286L38.1657 67.2086C37.9732 67.5914 37.5882 67.8124 37.1878 67.8124Z" fill="#1C43FE"/>
<path d="M60.8869 7.65617C60.0009 6.89711 58.8656 6.53617 57.7041 6.61711C56.5359 6.70898 55.4728 7.2493 54.7181 8.13742L53.5938 9.44992V12.8165L56.3806 9.55711C56.7591 9.11305 57.2884 8.84398 57.8725 8.79805C58.4609 8.75648 59.0166 8.93586 59.4628 9.31867C59.9069 9.69711 60.1781 10.2287 60.2241 10.8084C60.27 11.3902 60.0863 11.9546 59.7056 12.4009L56.84 15.7543C56.4462 16.2137 56.5009 16.9027 56.9603 17.2965C57.4197 17.6859 58.1087 17.6377 58.5025 17.174L61.3681 13.8205C62.1294 12.9324 62.4969 11.8015 62.4072 10.6355C62.3109 9.4718 61.7728 8.41305 60.8869 7.65617Z" fill="#1C43FE"/>
<path d="M36.0938 8.75H42.6562C43.26 8.75 43.75 8.26 43.75 7.65625C43.75 7.0525 43.26 6.5625 42.6562 6.5625H36.0938C35.49 6.5625 35 7.0525 35 7.65625C35 8.26 35.49 8.75 36.0938 8.75Z" fill="#1C43FE"/>
<path d="M38.2812 50.3125H40.4688C41.0725 50.3125 41.5625 49.8225 41.5625 49.2188C41.5625 48.615 41.0725 48.125 40.4688 48.125H38.2812C37.6775 48.125 37.1875 48.615 37.1875 49.2188C37.1875 49.8225 37.6775 50.3125 38.2812 50.3125Z" fill="#1C43FE"/>
<path d="M54.2792 29.7936C53.2358 29.7936 52.2273 29.4195 51.4376 28.7414C50.5495 27.9845 50.0114 26.9236 49.9195 25.7598C49.8298 24.5961 50.1973 23.4651 50.9586 22.5748L51.3042 22.1308C52.8595 20.3064 55.7404 20.1051 57.5036 21.6167C58.3895 22.3736 58.9276 23.4345 59.0195 24.5983C59.1092 25.762 58.7417 26.893 57.9804 27.7833L57.6348 28.2273C56.7729 29.2358 55.5611 29.7936 54.2792 29.7936ZM54.6576 22.752C54.0167 22.752 53.4108 23.0298 52.9951 23.5176L52.6473 23.9639C52.2361 24.443 52.0545 25.0095 52.0983 25.5914C52.1442 26.1733 52.4154 26.7026 52.8595 27.0811C53.7411 27.8423 55.1892 27.7242 55.9417 26.8426L56.2873 26.3986C56.6986 25.9195 56.8801 25.353 56.8364 24.7711C56.7904 24.1892 56.5192 23.6598 56.0751 23.2814C55.6814 22.938 55.1783 22.752 54.6576 22.752Z" fill="#1C43FE"/>
<path d="M53.745 38.5898C52.7016 38.5898 51.6931 38.2157 50.9035 37.5376C50.0153 36.7807 49.4772 35.7198 49.3853 34.556C49.2956 33.3923 49.6631 32.2613 50.4244 31.371L52.0869 29.4526C53.5831 27.696 56.4903 27.4642 58.2513 28.9779C59.1372 29.7348 59.6753 30.7957 59.7672 31.9595C59.8569 33.1232 59.4894 34.2542 58.7281 35.1445L57.0656 37.0629C56.241 38.0298 55.0291 38.5898 53.745 38.5898ZM55.4075 30.1132C54.7666 30.1132 54.1606 30.391 53.745 30.8788L52.0803 32.7995C51.7041 33.2392 51.5203 33.8035 51.5663 34.3876C51.6122 34.9695 51.8834 35.4988 52.3275 35.8773C53.2091 36.6407 54.655 36.5182 55.4097 35.6388L57.0722 33.7204C57.4485 33.2807 57.6322 32.7163 57.5863 32.1323C57.5403 31.5504 57.2691 31.021 56.825 30.6426C56.4313 30.2992 55.926 30.1132 55.4075 30.1132Z" fill="#1C43FE"/>
<path d="M54.6875 21.6737V7.65625C54.6875 4.64188 52.2353 2.1875 49.2188 2.1875H29.5312C26.5147 2.1875 24.0625 4.64188 24.0625 7.65625V31.7188C24.0625 32.3225 24.5525 32.8125 25.1562 32.8125C25.76 32.8125 26.25 32.3225 26.25 31.7188V7.65625C26.25 5.84719 27.7222 4.375 29.5312 4.375H49.2188C51.0278 4.375 52.5 5.84719 52.5 7.65625V22.4853C53.1191 21.9406 53.9 21.6672 54.6875 21.6737Z" fill="#1C43FE"/>
<path d="M52.5002 46.2876V49.2188C52.5002 51.0279 51.028 52.5001 49.219 52.5001H38.2793C37.6755 52.5001 37.1855 52.9901 37.1855 53.5938C37.1855 54.1976 37.6755 54.6876 38.2793 54.6876H49.219C52.2355 54.6876 54.6877 52.2332 54.6877 49.2188V46.3095C54.3487 46.4232 54.0009 46.4976 53.6421 46.4976C53.2571 46.4998 52.8699 46.4276 52.5002 46.2876Z" fill="#1C43FE"/>
<path d="M53.6415 47.5935C52.5981 47.5935 51.5896 47.2194 50.7999 46.5413C49.9118 45.7844 49.3737 44.7235 49.2818 43.5597C49.1921 42.396 49.5596 41.265 50.3209 40.3747L51.9834 38.4563C53.4796 36.7019 56.3868 36.4678 58.1478 37.9816C59.0337 38.7385 59.5718 39.7994 59.6637 40.9631C59.7534 42.1269 59.3859 43.2578 58.6246 44.1481L56.9621 46.0666C56.1374 47.0335 54.9256 47.5935 53.6415 47.5935ZM55.304 39.1169C54.6631 39.1169 54.0571 39.3947 53.6415 39.8825L51.9768 41.8031C51.6006 42.2428 51.4168 42.8072 51.4627 43.3913C51.5087 43.9731 51.7799 44.5025 52.224 44.881C53.1056 45.6422 54.5515 45.5219 55.3062 44.6425L56.9687 42.7241C57.3449 42.2844 57.5287 41.72 57.4827 41.136C57.4368 40.5541 57.1656 40.0247 56.7215 39.6463C56.3278 39.3028 55.8246 39.1169 55.304 39.1169Z" fill="#1C43FE"/>
<path d="M14.2191 67.8123C14.055 67.8123 13.8888 67.7751 13.7291 67.6963C13.1888 67.4251 12.97 66.7688 13.2391 66.2285L18.5088 55.6869L15.91 47.4182C15.3106 45.5063 15.1685 42.4788 15.5885 40.521L17.5003 31.6244V20.8619C17.5003 20.2582 17.9903 19.7682 18.5941 19.7682L18.9047 19.7529C19.9328 19.6829 22.3325 19.5298 24.1438 21.2273C25.5416 22.5354 26.2503 24.6441 26.2503 27.4923V37.2769C28.0725 38.6288 34.1297 43.8132 34.891 53.5104C34.9391 54.1119 34.4885 54.6391 33.8869 54.6873C33.3422 54.7354 32.7582 54.2869 32.7122 53.6832C31.9203 43.6163 24.6403 38.8148 24.566 38.7688C24.2531 38.5632 24.0628 38.2176 24.0628 37.8457V27.4923C24.0628 25.2741 23.586 23.7035 22.6475 22.8219C21.7681 21.9973 20.5913 21.8988 19.69 21.9054L19.6878 31.7404C19.6878 31.8169 19.6769 31.8935 19.6616 31.9701L17.7278 40.9804C17.3866 42.5663 17.5091 45.2132 17.9969 46.7619L20.7291 55.4529C20.8144 55.7241 20.7903 56.0151 20.6656 56.271L15.1969 67.2085C15.0044 67.5913 14.6194 67.8123 14.2191 67.8123Z" fill="#1C43FE"/>
</svg>
