<svg width="34" height="26" viewBox="0 0 34 26" fill="none" xmlns="http://www.w3.org/2000/svg">
<path d="M30.9808 2.24114C32.9452 4.32022 34 6.6536 34 10.4361C34 17.0885 29.316 23.0525 22.501 26L20.7988 23.3811C27.1585 19.9505 28.4013 15.5008 28.8982 12.6951C27.8743 13.223 26.5338 13.4085 25.2199 13.2872C21.7793 12.9692 19.0677 10.1532 19.0677 6.6536C19.0677 2.97891 22.0556 0 25.7414 0C27.7875 0 29.7441 0.93236 30.9808 2.24114ZM11.913 2.24114C13.8774 4.32022 14.9322 6.6536 14.9322 10.4361C14.9322 17.0885 10.2482 23.0525 3.43326 26L1.7311 23.3811C8.09066 19.9505 9.33361 15.5008 9.83042 12.6951C8.80648 13.223 7.46611 13.4085 6.1521 13.2872C2.71157 12.9692 0 10.1532 0 6.6536C0 2.97891 2.98792 0 6.67371 0C8.71978 0 10.6764 0.93236 11.913 2.24114Z" fill="#1C43FE"/>
</svg>
