<svg xmlns="http://www.w3.org/2000/svg" width="46" height="46" viewBox="0 0 46 46" fill="none">
                                        <path d="M17.2499 19.1668C21.4841 19.1668 24.9166 15.7343 24.9166 11.5002C24.9166 7.26598 21.4841 3.8335 17.2499 3.8335C13.0157 3.8335 9.58325 7.26598 9.58325 11.5002C9.58325 15.7343 13.0157 19.1668 17.2499 19.1668Z" stroke="white" stroke-width="2.88"></path>
                                        <path opacity="0.5" d="M23.9583 8.32025C24.6413 7.29119 25.6375 6.50941 26.7994 6.09062C27.9613 5.67184 29.2272 5.63832 30.4097 5.99502C31.5921 6.35173 32.6283 7.0797 33.3648 8.07116C34.1014 9.06263 34.499 10.2649 34.499 11.5C34.499 12.7351 34.1014 13.9374 33.3648 14.9288C32.6283 15.9203 31.5921 16.6483 30.4097 17.005C29.2272 17.3617 27.9613 17.3282 26.7994 16.9094C25.6375 16.4906 24.6413 15.7088 23.9583 14.6797" stroke="white" stroke-width="2.88"></path>
                                        <path d="M17.2499 40.2503C24.6597 40.2503 30.6666 36.8178 30.6666 32.5837C30.6666 28.3495 24.6597 24.917 17.2499 24.917C9.8401 24.917 3.83325 28.3495 3.83325 32.5837C3.83325 36.8178 9.8401 40.2503 17.2499 40.2503Z" stroke="white" stroke-width="2.88"></path>
                                        <path opacity="0.5" d="M34.5 26.8335C37.8618 27.5714 40.25 29.4382 40.25 31.6252C40.25 33.5993 38.3065 35.3109 35.4583 36.1677" stroke="white" stroke-width="2.88" stroke-linecap="round"></path>
                                    </svg>