<svg xmlns="http://www.w3.org/2000/svg" width="60" height="60" viewBox="0 0 60 60" fill="none">
                                    <g clip-path="url(#clip0_7923_348)">
                                        <path d="M23.0674 53.5817C23.0674 55.1934 24.3786 56.5047 25.9903 56.5047H34.0096C35.6213 56.5047 36.9325 55.1935 36.9325 53.5817C36.9325 51.9699 35.6213 50.6587 34.0096 50.6587H25.9903C24.3786 50.6587 23.0674 51.97 23.0674 53.5817ZM35.1747 53.5817C35.1747 54.2241 34.6521 54.7469 34.0096 54.7469H25.9903C25.3479 54.7469 24.8252 54.2242 24.8252 53.5817C24.8252 52.9392 25.3479 52.4165 25.9903 52.4165H34.0096C34.6521 52.4165 35.1747 52.9393 35.1747 53.5817Z" fill="#FE3F10"></path>
                                        <path d="M50.2698 12.5486H48.108V9.92535C50.3884 9.50992 52.1232 7.51035 52.1232 5.11188C52.1232 2.41328 49.9277 0.217773 47.2291 0.217773H12.7709C10.0723 0.217773 7.87676 2.41328 7.87676 5.11188C7.87676 7.51035 9.61148 9.50992 11.892 9.92535V12.5486H9.7302C4.365 12.5486 0 16.9136 0 22.2789C0 27.6441 4.365 32.0091 9.7302 32.0091H14.7064C17.2024 35.9365 21.1684 38.8417 25.824 39.9449V47.3819H23.3723C21.0062 47.3819 19.0813 49.3068 19.0813 51.6729V55.4911C19.0813 57.8573 21.0062 59.7822 23.3723 59.7822H36.6278C38.9939 59.7822 40.9188 57.8573 40.9188 55.4911V51.6729C40.9188 49.3069 38.9939 47.3819 36.6278 47.3819H34.1761V39.9449C38.8318 38.8417 42.7977 35.9365 45.2937 32.0091H50.2699C55.6351 32.0091 60.0001 27.6441 60.0001 22.2789C60 16.9136 55.635 12.5486 50.2698 12.5486ZM48.108 19.7962H50.2698C51.6387 19.7962 52.7524 20.9098 52.7524 22.2788C52.7524 23.6477 51.6388 24.7614 50.2698 24.7614H47.9434C48.1916 22.9255 48.0804 21.8256 48.108 19.7962ZM9.63457 5.11188C9.63457 3.38254 11.0415 1.97559 12.7709 1.97559H47.2293C48.9586 1.97559 50.3655 3.38254 50.3655 5.11188C50.3655 6.84121 48.9586 8.24816 47.2293 8.24816H12.7709C11.0415 8.24816 9.63457 6.84121 9.63457 5.11188ZM12.0566 24.7614H9.7302C8.36133 24.7614 7.24758 23.6478 7.24758 22.2788C7.24758 20.9098 8.36121 19.7962 9.7302 19.7962H11.892V22.3236C11.892 23.1503 11.9488 23.9638 12.0566 24.7614ZM13.716 30.2512H9.7302C5.33426 30.2512 1.75781 26.6748 1.75781 22.2788C1.75781 17.8829 5.33426 14.3064 9.7302 14.3064H11.892V18.0384H9.7302C7.39207 18.0384 5.48977 19.9405 5.48977 22.2788C5.48977 24.6169 7.39195 26.5192 9.7302 26.5192H12.3818C12.6725 27.7454 13.12 29.0298 13.716 30.2512ZM39.161 51.6728V55.491C39.161 56.8879 38.0247 58.0243 36.6278 58.0243H23.3722C21.9754 58.0243 20.839 56.8879 20.839 55.491V51.6728C20.839 50.2761 21.9754 49.1396 23.3722 49.1396H26.7028H33.2971H36.6277C38.0246 49.1396 39.161 50.2759 39.161 51.6728ZM27.5818 47.3818V42.9152C28.3753 43.0081 29.182 43.057 30 43.057C30.818 43.057 31.6248 43.0081 32.4182 42.9152V47.3818H27.5818ZM32.9948 38.398C31.0465 38.7583 29.0098 38.7689 27.0043 38.3979C20.6228 37.2114 15.5314 32.307 14.0722 26.0245C13.5281 23.6717 13.6496 23.6852 13.6496 10.0061H46.3502C46.3502 23.1466 46.4879 23.596 45.9279 26.0239C44.4688 32.3069 39.377 37.2116 32.9948 38.398ZM50.2698 30.2512H46.2839C46.88 29.0297 47.3288 27.7394 47.6181 26.5192H50.2697C52.6078 26.5192 54.5101 24.617 54.5101 22.2788C54.5101 19.9405 52.6079 18.0384 50.2697 18.0384H48.1079V14.3064H50.2697C54.6656 14.3064 58.2421 17.8829 58.2421 22.2788C58.2422 26.6748 54.6657 30.2512 50.2698 30.2512Z" fill="#FE3F10"></path>
                                        <path d="M38.8371 17.9644L34.7242 17.3667L32.885 13.6398C31.7051 11.249 28.2941 11.2502 27.1149 13.6398L25.2756 17.3667L21.1627 17.9644C18.5245 18.3477 17.4714 21.5921 19.3797 23.452L22.3558 26.353L21.6532 30.4493C21.2025 33.077 23.9625 35.0808 26.3213 33.8409L29.9999 31.9069L33.6787 33.8409C36.0346 35.0795 38.7972 33.0762 38.3467 30.4493L37.6442 26.353L40.6203 23.452C42.5293 21.5911 41.4742 18.3476 38.8371 17.9644ZM39.3933 22.1933L36.0863 25.4168C35.8791 25.6187 35.7845 25.9097 35.8335 26.1947L36.6142 30.7463C36.8188 31.9397 35.5702 32.8495 34.4966 32.2848L30.4089 30.1359C30.1529 30.0014 29.847 30.0014 29.5909 30.1359L25.5033 32.2849C24.4312 32.8485 23.1807 31.942 23.3857 30.7465L24.1664 26.1948C24.2153 25.9097 24.1209 25.6188 23.9137 25.4169L20.6066 22.1934C19.7416 21.3501 20.2128 19.8787 21.4156 19.704L25.9858 19.0399C26.2721 18.9983 26.5196 18.8185 26.6475 18.5591L28.6913 14.4179C29.2274 13.3316 30.772 13.3301 31.3088 14.4179L33.3525 18.5591C33.4805 18.8184 33.728 18.9983 34.0143 19.0399L38.5845 19.704C39.7804 19.8777 40.2632 21.3452 39.3933 22.1933Z" fill="#FE3F10"></path>
                                        <path d="M34.959 23.3618C35.5401 23.3618 36.0112 22.8907 36.0112 22.3095C36.0112 21.7284 35.5401 21.2573 34.959 21.2573C34.3778 21.2573 33.9067 21.7284 33.9067 22.3095C33.9067 22.8907 34.3778 23.3618 34.959 23.3618Z" fill="#FE3F10"></path>
                                        <path d="M32.2279 24.2666H27.772C27.2866 24.2666 26.8931 24.6601 26.8931 25.1455C26.8931 25.6309 27.2866 26.0244 27.772 26.0244H32.2279C32.7133 26.0244 33.1068 25.6309 33.1068 25.1455C33.1068 24.6601 32.7133 24.2666 32.2279 24.2666Z" fill="#FE3F10"></path>
                                        <path d="M25.041 23.3618C25.6221 23.3618 26.0932 22.8907 26.0932 22.3095C26.0932 21.7284 25.6221 21.2573 25.041 21.2573C24.4599 21.2573 23.9888 21.7284 23.9888 22.3095C23.9888 22.8907 24.4599 23.3618 25.041 23.3618Z" fill="#FE3F10"></path>
                                    </g>
                                    <defs>
                                        <clipPath id="clip0_7923_348">
                                        <rect width="60" height="60" fill="white"></rect>
                                        </clipPath>
                                    </defs>
                                </svg>