<svg xmlns="http://www.w3.org/2000/svg" width="60" height="60" viewBox="0 0 60 60" fill="none">
                                    <g clip-path="url(#clip0_7923_371)">
                                        <path d="M55.029 11.1364C57.7474 11.1364 59.959 8.92488 59.959 6.20648C59.959 3.4882 57.7474 1.27664 55.029 1.27664C53.5437 1.27664 52.2107 1.93793 51.3061 2.98031H36.188C36.0122 1.30781 34.5939 0 32.8757 0H27.1243C25.406 0 23.9877 1.30781 23.812 2.98031H8.69391C7.78934 1.93781 6.45633 1.27664 4.97098 1.27664C2.25258 1.27664 0.0410156 3.4882 0.0410156 6.20648C0.0410156 8.92488 2.25258 11.1364 4.97098 11.1364C6.45633 11.1364 7.78934 10.4752 8.69391 9.43266H13.6302C8.45813 14.1819 5.95313 20.6266 5.19914 27.5531C4.07402 27.8343 3.23801 28.8533 3.23801 30.0642V34.7473C3.23801 36.1746 4.39922 37.3357 5.82645 37.3357H10.5094C11.9366 37.3357 13.0978 36.1746 13.0978 34.7473V30.0642C13.0978 29.055 12.5168 28.1794 11.672 27.7527C12.6696 19.6924 16.5006 13.3048 24.1071 10.4912C24.6389 11.6254 25.7911 12.4131 27.1243 12.4131H32.8757C34.2089 12.4131 35.3611 11.6254 35.8929 10.4912C37.4073 11.0514 38.8204 11.7793 40.101 12.6655C42.5384 14.3521 44.4821 16.5902 45.8784 19.3181C47.1101 21.7243 47.9326 24.5592 48.3279 27.7528C47.4831 28.1794 46.902 29.055 46.902 30.0643V34.7474C46.902 36.1747 48.0632 37.3358 49.4904 37.3358H54.1734C55.6007 37.3358 56.7619 36.1747 56.7619 34.7474V30.0643C56.7619 28.8534 55.9259 27.8345 54.8007 27.5532C54.3381 23.3033 53.2438 19.4941 51.5419 16.2226C50.1896 13.6234 48.4554 11.348 46.3697 9.43277H51.306C52.2107 10.4752 53.5437 11.1364 55.029 11.1364ZM55.029 3.03445C56.7782 3.03445 58.2012 4.45746 58.2012 6.20648C58.2012 7.95551 56.7782 9.37863 55.029 9.37863C53.269 9.37863 51.8569 7.94215 51.8569 6.20648C51.8569 4.45418 53.2849 3.03445 55.029 3.03445ZM4.97098 9.37863C3.22184 9.37863 1.79883 7.95551 1.79883 6.20648C1.79883 4.45746 3.22184 3.03445 4.97098 3.03445C6.70383 3.03445 8.14313 4.44281 8.14313 6.20648C8.14313 7.95832 6.71508 9.37863 4.97098 9.37863ZM11.3401 34.7473C11.3401 35.2052 10.9675 35.5779 10.5095 35.5779H5.82645C5.36848 35.5779 4.99582 35.2052 4.99582 34.7473V30.0642C4.99582 29.6063 5.36848 29.2337 5.82645 29.2337C10.7993 29.2337 10.5282 29.2313 10.6173 29.2416C11.0244 29.2946 11.3401 29.6429 11.3401 30.0643V34.7473ZM9.93457 27.4758H6.97559C7.82625 20.1362 10.7354 13.6167 16.5947 9.25898C16.8988 9.03281 17.0236 8.63719 16.9045 8.27742C16.7855 7.91777 16.4491 7.67473 16.0702 7.67473H9.6784C9.82828 7.19508 9.90094 6.68156 9.90094 6.20637C9.90094 5.7157 9.82348 5.20301 9.6784 4.73801H23.7935V8.73281C15.4117 11.6964 11.0416 18.6606 9.93457 27.4758ZM32.8757 10.6553H27.1243C26.2566 10.6553 25.5512 9.94723 25.5512 9.08215C25.5512 7.1775 25.5512 5.25855 25.5512 3.33082C25.5512 2.4634 26.2569 1.75781 27.1243 1.75781H32.8757C33.7431 1.75781 34.4488 2.4634 34.4488 3.33082V9.08215C34.4488 9.93094 33.7586 10.6553 32.8757 10.6553ZM55.0041 34.7473C55.0041 35.2052 54.6314 35.5779 54.1734 35.5779H49.4904C49.0324 35.5779 48.6598 35.2052 48.6598 34.7473V30.0642C48.6598 29.5979 49.0426 29.2337 49.4904 29.2337H54.1734C54.6314 29.2337 55.0041 29.6063 55.0041 30.0642V34.7473ZM50.3216 7.67484H43.9298C43.5509 7.67484 43.2145 7.91777 43.0955 8.27754C42.9763 8.63731 43.1012 9.03293 43.4053 9.2591C46.1464 11.2977 48.3593 13.9136 49.9826 17.0338C51.5479 20.0429 52.5696 23.5518 53.0244 27.4759H50.0654C49.6417 24.102 48.761 21.0915 47.4434 18.5171C45.9135 15.5284 43.7797 13.0733 41.1013 11.22C39.6155 10.192 37.9717 9.35707 36.2066 8.73293V4.73812H50.3216C50.172 5.21789 50.0992 5.73129 50.0992 6.20648C50.0991 6.69785 50.1766 7.21055 50.3216 7.67484Z" fill="#1C43FE"></path>
                                        <path d="M42.7482 44.1095C44.5246 40.7226 44.3324 36.4805 42.2589 33.3026L34.9032 22.0234C34.2137 20.9674 33.2337 20.1782 32.069 19.741H32.0688C32.0688 19.741 32.0687 19.741 32.0687 19.7408C30.7344 19.2407 29.2649 19.2407 27.9307 19.7408L27.9306 19.741H27.9305C26.7659 20.1781 25.7857 20.9673 25.0959 22.0238L17.7408 33.3024C15.6672 36.4805 15.475 40.7224 17.2514 44.1096L21.335 51.8909C19.6927 52.4495 18.5074 54.0056 18.5074 55.8345C18.5074 58.1312 20.376 59.9997 22.6726 59.9997H37.3268C39.6236 59.9997 41.492 58.1311 41.492 55.8345C41.492 54.0056 40.3066 52.4494 38.6644 51.8909L42.748 44.1096C42.7481 44.1096 42.7481 44.1096 42.7482 44.1095ZM30.8814 21.2187V37.2651C30.8814 37.5716 31.0411 37.856 31.3029 38.0155C32.059 38.4763 32.5104 39.2785 32.5104 40.1616C32.5104 41.5459 31.3841 42.6722 29.9998 42.6722C28.6154 42.6722 27.4891 41.546 27.4891 40.1616C27.4891 39.2786 27.9406 38.4763 28.6966 38.0155C28.9584 37.856 29.1182 37.5716 29.1182 37.2651V21.2187C29.699 21.092 30.3005 21.092 30.8814 21.2187ZM39.7343 55.8347C39.7343 57.1622 38.6544 58.2421 37.3269 58.2421H22.6726C21.3451 58.2421 20.2652 57.1621 20.2652 55.8347C20.2652 54.5073 21.3452 53.4273 22.6726 53.4273H37.3268C38.6543 53.4272 39.7343 54.5072 39.7343 55.8347ZM41.1916 43.2929L36.7956 51.6694H23.2041L18.8081 43.2931C17.3228 40.461 17.4817 36.9164 19.2131 34.2628L26.5682 22.9845C26.7918 22.6421 27.0582 22.3399 27.3605 22.0838V36.8063C26.332 37.6118 25.7315 38.8327 25.7315 40.1615C25.7315 42.5151 27.6463 44.4299 29.9999 44.4299C32.3535 44.4299 34.2683 42.5152 34.2683 40.1615C34.2683 38.8327 33.6677 37.6118 32.6393 36.8063V22.0839C32.9415 22.3399 33.208 22.6419 33.4314 22.9841L40.7868 34.2631C42.518 36.9164 42.6768 40.461 41.1916 43.2929Z" fill="#1C43FE"></path>
                                    </g>
                                    <defs>
                                        <clipPath id="clip0_7923_371">
                                        <rect width="60" height="60" fill="white"></rect>
                                        </clipPath>
                                    </defs>
                                </svg>