<svg xmlns="http://www.w3.org/2000/svg" width="60" height="60" viewBox="0 0 60 60" fill="none">
                                    <g clip-path="url(#clip0_7923_344)">
                                        <path d="M0.514994 35.7192C-0.799616 37.6097 0.554955 40.2032 2.85863 40.2032H15.3427C15.7774 43.7125 18.7756 46.4385 22.4006 46.4385C26.0255 46.4385 29.0239 43.7126 29.4585 40.2032H44.1256L47.0213 47.605C45.9045 48.8617 45.2244 50.5148 45.2244 52.3244C45.2244 56.2471 48.4157 59.4385 52.3385 59.4385C56.2612 59.4385 59.4527 56.2471 59.4527 52.3244C59.4527 48.6383 56.6346 45.5987 53.0398 45.2451L50.8278 39.5908C51.7381 39.2173 52.5798 38.681 53.2987 38.0116L58.7027 32.9803C59.5271 32.2126 60 31.1263 60 29.9998C60 28.8734 59.5271 27.7871 58.7027 27.0195L53.2986 21.9881C51.7807 20.5748 49.8023 19.7964 47.7282 19.7964H43.0839L40.1882 12.3946C41.305 11.1378 41.9853 9.48486 41.9853 7.67525C41.9853 3.75252 38.7938 0.561035 34.8711 0.561035C30.9484 0.561035 27.757 3.75252 27.757 7.67525C27.757 9.47853 28.4327 11.1261 29.5425 12.3814L26.6207 19.7964H18.1803L15.2586 12.3814C16.3685 11.1262 17.0442 9.47853 17.0442 7.67525C17.0442 3.75252 13.8528 0.561035 9.93007 0.561035C6.00734 0.561035 2.81585 3.75252 2.81585 7.67525C2.81585 11.3671 5.64288 14.4103 9.2457 14.7558L11.2318 19.7964H2.85863C0.555892 19.7964 -0.800084 22.3892 0.514994 24.2806L3.28027 28.2574C4.00507 29.2996 4.00507 30.7 3.28027 31.7423L0.514994 35.7192ZM47.7282 21.5542C49.3563 21.5542 50.9091 22.1651 52.1007 23.2747L57.5048 28.3061C57.9803 28.7486 58.2421 29.3501 58.2421 29.9998C58.2421 30.6495 57.9803 31.251 57.5048 31.6938L52.1007 36.7251C51.5435 37.244 50.892 37.6611 50.1873 37.9538L43.7716 21.5542H47.7282ZM22.4006 44.6807C19.4471 44.6807 17.0442 42.2778 17.0442 39.3243C17.0442 36.3919 19.4245 33.968 22.4006 33.968C25.3551 33.968 27.757 36.3739 27.757 39.3243C27.757 42.2779 25.3541 44.6807 22.4006 44.6807ZM30.9479 13.6096C31.7922 14.1697 32.7687 14.5385 33.6914 14.6919L26.3238 33.3899C25.513 32.8521 24.5503 32.4696 23.5804 32.3078L30.9479 13.6096ZM29.4616 38.4454C29.2877 37.0191 28.6909 35.6954 27.7307 34.6142L32.8767 21.5542H36.8298L43.4378 38.4455H29.4616V38.4454ZM33.5694 19.7964L34.8604 16.52L36.1422 19.7964H33.5694ZM57.6948 52.3245C57.6948 55.278 55.2918 57.6808 52.3384 57.6808C49.3849 57.6808 46.9819 55.278 46.9819 52.3245C46.9819 49.4035 49.3698 46.9247 52.4146 46.9703C52.4156 46.9703 52.4165 46.9702 52.4175 46.9702C55.3346 47.0128 57.6948 49.3975 57.6948 52.3245ZM48.4297 46.3805L36.0338 14.6947C36.9549 14.5428 37.9332 14.1782 38.7799 13.6191L51.1757 45.3051C50.2428 45.4584 49.2582 45.8335 48.4297 46.3805ZM34.8711 2.31885C37.8246 2.31885 40.2275 4.72166 40.2275 7.67525C40.2275 10.6383 37.8126 13.0317 34.8711 13.0317C31.929 13.0317 29.5147 10.6374 29.5147 7.67525C29.5148 4.72166 31.9176 2.31885 34.8711 2.31885ZM18.873 21.5542H25.9282L22.4006 30.5071L18.873 21.5542ZM4.57367 7.67525C4.57367 4.72166 6.97659 2.31885 9.93007 2.31885C12.8835 2.31885 15.2865 4.72166 15.2865 7.67525C15.2865 10.6181 12.8908 13.0315 9.93183 13.0315C9.91847 13.0312 9.85261 13.0298 9.86468 13.0299C6.94132 12.9946 4.57367 10.6068 4.57367 7.67525ZM13.8533 13.6096L21.2207 32.3077C20.2796 32.4646 19.3103 32.8372 18.4774 33.3899L11.1099 14.6919C12.041 14.5366 13.0119 14.1678 13.8533 13.6096ZM4.72343 27.2538L1.95816 23.277C1.45132 22.5482 1.9721 21.5541 2.85863 21.5541H11.9245L17.0704 34.6141C16.1103 35.6954 15.5135 37.0189 15.3396 38.4453H2.85863C1.97105 38.4453 1.45203 37.4505 1.95816 36.7225L4.72343 32.7456C5.86554 31.1034 5.86554 28.8963 4.72343 27.2538Z" fill="#FFA500"></path>
                                    </g>
                                    <defs>
                                        <clipPath id="clip0_7923_344">
                                        <rect width="60" height="60" fill="white"></rect>
                                        </clipPath>
                                    </defs>
                                </svg>