<svg xmlns="http://www.w3.org/2000/svg" width="60" height="60" viewBox="0 0 60 60" fill="none">
                                    <g clip-path="url(#clip0_7923_364)">
                                        <path d="M36.2661 28.2989C37.0004 28.2989 37.5956 27.7036 37.5956 26.9693C37.5956 26.235 37.0003 25.6396 36.2661 25.6396C35.5318 25.6396 34.9365 26.235 34.9365 26.9693C34.9365 27.7036 35.5318 28.2989 36.2661 28.2989Z" fill="#00BED9"></path>
                                        <path d="M27.1846 31.4316H32.8152C33.3006 31.4316 33.6941 31.0381 33.6941 30.5527C33.6941 30.0672 33.3006 29.6738 32.8152 29.6738H27.1846C26.6992 29.6738 26.3057 30.0672 26.3057 30.5527C26.3057 31.038 26.6992 31.4316 27.1846 31.4316Z" fill="#00BED9"></path>
                                        <path d="M23.7338 28.2989C24.4681 28.2989 25.0634 27.7036 25.0634 26.9693C25.0634 26.235 24.4681 25.6396 23.7338 25.6396C22.9995 25.6396 22.4043 26.235 22.4043 26.9693C22.4043 27.7036 22.9995 28.2989 23.7338 28.2989Z" fill="#00BED9"></path>
                                        <path d="M51.2073 51.218C56.8774 45.5515 60 38.0162 60 30C60 21.9868 56.8794 14.4532 51.213 8.78684C45.5468 3.12059 38.0132 0 30 0C21.9868 0 14.4532 3.12059 8.78684 8.78684C3.12059 14.4532 0 21.9868 0 30C0 38.0324 3.13102 45.5762 8.81637 51.2415C14.4725 56.8778 21.9979 59.9978 29.9923 59.9999C29.9948 59.9999 29.9973 60 29.9999 60C30.0025 60 30.0049 59.9999 30.0075 59.9999C37.9119 59.9978 45.4792 56.9423 51.2073 51.218ZM30.0064 58.2421C30.0043 58.2421 30.0021 58.2421 30 58.2421C29.9979 58.2421 29.9958 58.2421 29.9936 58.2421C27.7213 58.2421 25.3677 57.9686 23.0389 57.3771V50.2289C23.0389 49.7435 22.6454 49.35 22.16 49.35H15.9056C16.7429 46.8281 18.247 44.8123 20.3878 43.3471C21.8249 42.3635 23.1479 41.9254 23.67 41.778C25.6677 42.5718 27.806 42.9844 30 42.9844C32.1779 42.9844 34.3175 42.5776 36.3294 41.7782C36.8577 41.9272 38.1782 42.3657 39.6121 43.3471C41.7529 44.8121 43.257 46.8281 44.0943 49.35H37.8398C37.3545 49.35 36.9609 49.7435 36.9609 50.2289V57.3772C34.6528 57.9633 32.304 58.2421 30.0064 58.2421ZM15.4464 51.1078H21.2812V56.87C19.1311 56.1737 17.0712 55.2183 15.1393 54.0209C15.1638 53.0017 15.2666 52.026 15.4464 51.1078ZM35.8029 17.6134C34.194 16.1906 31.7678 16.1914 30.1603 17.6129C26.5453 20.8022 20.2447 21.1459 15.4129 20.8631C17.5158 14.6646 23.3685 10.4215 30 10.4215C36.6173 10.4215 42.4375 14.6244 44.5618 20.7855C41.5445 20.4878 38.0748 19.6184 35.8029 17.6134ZM14.9359 22.5945C20.345 22.9596 27.2779 22.5008 31.324 18.9302C32.2687 18.0949 33.6936 18.0948 34.6392 18.9308C37.4044 21.3705 41.3734 22.3065 45.0649 22.5957C45.2895 23.6517 45.4031 24.7346 45.4031 25.8233C45.4031 34.316 38.4925 41.2264 30 41.2264C21.5248 41.2264 14.5969 34.3339 14.5969 25.8233C14.5969 24.733 14.7108 23.65 14.9359 22.5945ZM44.8607 54.0209C42.9288 55.2183 40.8689 56.1737 38.7188 56.87V51.1078H44.5536C44.7333 52.026 44.8362 53.0017 44.8607 54.0209ZM1.75781 30C1.75781 22.4564 4.69559 15.3641 10.0298 10.0298C15.3641 4.69559 22.4564 1.75781 30 1.75781C37.5436 1.75781 44.6358 4.69547 49.9702 10.0298C55.3045 15.3642 58.2422 22.4564 58.2422 30C58.2422 37.5464 55.3025 44.6402 49.9648 49.9745C48.8973 51.0413 47.7586 52.0104 46.5612 52.881C46.4837 51.8825 46.3351 50.9245 46.1139 50.02C46.1139 50.0198 46.1138 50.0197 46.1138 50.0196C44.74 44.3955 40.9181 41.8184 38.5089 40.7221C43.6738 37.7607 47.1609 32.1918 47.1609 25.8233C47.1609 24.3752 46.9802 22.9356 46.6236 21.5446C46.6236 21.5445 46.6236 21.5445 46.6236 21.5443C46.6236 21.5443 46.6236 21.5442 46.6236 21.5441C44.6757 13.9603 37.8398 8.66367 30 8.66367C20.5521 8.66367 12.8391 16.3175 12.8391 25.8234C12.8391 32.1919 16.3262 37.761 21.4911 40.7222C19.0819 41.8184 15.2599 44.3957 13.8863 50.0197C13.8863 50.0198 13.8861 50.02 13.8861 50.0201C13.665 50.9242 13.5164 51.8817 13.4389 52.8796C12.2498 52.0153 11.1185 51.0539 10.0573 49.9964C4.70519 44.6632 1.75781 37.5618 1.75781 30Z" fill="#00BED9"></path>
                                    </g>
                                    <defs>
                                        <clipPath id="clip0_7923_364">
                                        <rect width="60" height="60" fill="white"></rect>
                                        </clipPath>
                                    </defs>
                                </svg>